<?xml version="1.0" encoding="utf-8"?>
<!-- Generator: Adobe Illustrator 23.0.2, SVG Export Plug-In . SVG Version: 6.00 Build 0)  -->
<svg version="1.1" xmlns="http://www.w3.org/2000/svg" xmlns:xlink="http://www.w3.org/1999/xlink" x="0px" y="0px"
	 viewBox="0 0 114 36" style="enable-background:new 0 0 114 36;" xml:space="preserve">
<style type="text/css">
	.st0{fill:#FF921C;}
	.st1{fill:#3C382A;}
</style>
<g>
	<path class="st0" d="M26.9,30.5c-0.2,0-0.4,0-0.5-0.1c-0.2,0-0.3-0.1-0.5-0.2c-0.2-0.1-0.3-0.1-0.5-0.2c-0.1-0.1-0.3-0.2-0.4-0.3
		c-0.5-0.5-0.8-1.2-0.8-1.9c0-0.2,0-0.4,0.1-0.5c0-0.2,0.1-0.3,0.2-0.5c0.1-0.2,0.1-0.3,0.2-0.5c0.1-0.1,0.2-0.3,0.3-0.4
		c0.1-0.1,0.3-0.2,0.4-0.3c0.1-0.1,0.3-0.2,0.5-0.2c0.2-0.1,0.3-0.1,0.5-0.2c0.3-0.1,0.7-0.1,1,0c0.2,0,0.3,0.1,0.5,0.2
		c0.2,0.1,0.3,0.1,0.5,0.2c0.2,0.1,0.3,0.2,0.4,0.3c0.1,0.1,0.2,0.3,0.3,0.4c0.1,0.1,0.2,0.3,0.2,0.5c0.1,0.2,0.1,0.3,0.2,0.5
		c0,0.2,0.1,0.3,0.1,0.5c0,0.2,0,0.3-0.1,0.5c0,0.2-0.1,0.3-0.2,0.5c-0.1,0.2-0.2,0.3-0.2,0.5c-0.1,0.1-0.2,0.3-0.3,0.4
		c-0.1,0.1-0.3,0.2-0.4,0.3c-0.1,0.1-0.3,0.2-0.5,0.2c-0.2,0.1-0.3,0.1-0.5,0.2C27.3,30.4,27.1,30.5,26.9,30.5z"/>
	<path class="st0" d="M26.9,30.5c-0.2,0-0.4,0-0.5-0.1c-0.2,0-0.3-0.1-0.5-0.2c-0.2-0.1-0.3-0.1-0.5-0.2c-0.1-0.1-0.3-0.2-0.4-0.3
		c-0.5-0.5-0.8-1.2-0.8-1.9c0-0.2,0-0.4,0.1-0.5c0-0.2,0.1-0.3,0.2-0.5c0.1-0.2,0.1-0.3,0.2-0.5c0.1-0.1,0.2-0.3,0.3-0.4
		c0.1-0.1,0.3-0.2,0.4-0.3c0.1-0.1,0.3-0.2,0.5-0.2c0.2-0.1,0.3-0.1,0.5-0.2c0.3-0.1,0.7-0.1,1,0c0.2,0,0.3,0.1,0.5,0.2
		c0.2,0.1,0.3,0.1,0.5,0.2c0.2,0.1,0.3,0.2,0.4,0.3c0.1,0.1,0.2,0.3,0.3,0.4c0.1,0.1,0.2,0.3,0.2,0.5c0.1,0.2,0.1,0.3,0.2,0.5
		c0,0.2,0.1,0.3,0.1,0.5c0,0.2,0,0.3-0.1,0.5c0,0.2-0.1,0.3-0.2,0.5c-0.1,0.2-0.2,0.3-0.2,0.5c-0.1,0.1-0.2,0.3-0.3,0.4
		c-0.1,0.1-0.3,0.2-0.4,0.3c-0.1,0.1-0.3,0.2-0.5,0.2c-0.2,0.1-0.3,0.1-0.5,0.2C27.3,30.4,27.1,30.5,26.9,30.5z"/>
	<path class="st0" d="M5,30.2c-1.5,0-2.7-1.2-2.7-2.7v-8C2.4,11.8,8.5,5.5,16,5.5s13.6,6.3,13.6,14.1v1.9c0,1.5-1.2,2.7-2.7,2.7
		c-1.5,0-2.7-1.2-2.7-2.7v-1.9c0-4.8-3.7-8.7-8.3-8.7s-8.3,3.9-8.3,8.7v8C7.7,29.1,6.5,30.2,5,30.2z"/>
	<path class="st0" d="M5,30.2c-1.5,0-2.7-1.2-2.7-2.7v-8C2.4,11.8,8.5,5.5,16,5.5s13.6,6.3,13.6,14.1v1.9c0,1.5-1.2,2.7-2.7,2.7
		c-1.5,0-2.7-1.2-2.7-2.7v-1.9c0-4.8-3.7-8.7-8.3-8.7s-8.3,3.9-8.3,8.7v8C7.7,29.1,6.5,30.2,5,30.2z"/>
	<path class="st0" d="M16,30.5c-1.5,0-2.7-1.2-2.7-2.7V8.9c0-1.5,1.2-2.7,2.7-2.7s2.7,1.2,2.7,2.7v18.9C18.6,29.3,17.4,30.5,16,30.5
		z"/>
	<path class="st0" d="M16,30.5c-1.5,0-2.7-1.2-2.7-2.7V8.9c0-1.5,1.2-2.7,2.7-2.7s2.7,1.2,2.7,2.7v18.9C18.6,29.3,17.4,30.5,16,30.5
		z"/>
</g>
<g>
	<path class="st1" d="M39.4,15.9c0-0.4,0.1-0.8,0.2-1.2c0.2-0.4,0.4-0.7,0.6-1s0.6-0.5,1-0.6c0.4-0.2,0.8-0.2,1.2-0.2h4.5
		c0.5,0,0.9,0.2,1.3,0.5c0.4,0.4,0.5,0.8,0.5,1.3v12h-1.9V16.5c0-0.3-0.1-0.5-0.3-0.7c-0.2-0.2-0.4-0.3-0.7-0.3h-1.5
		c-0.3,0-0.5,0.1-0.7,0.3c-0.2,0.2-0.3,0.4-0.3,0.7v10.3h-3.9V15.9z M58,15.9v10.8h-3.9V16.5c0-0.3-0.1-0.5-0.3-0.7
		c-0.2-0.2-0.4-0.3-0.7-0.3h-1.5c-0.3,0-0.5,0.1-0.7,0.3c-0.2,0.2-0.3,0.4-0.3,0.7v10.3h-2v-12c0-0.5,0.2-1,0.5-1.3
		c0.4-0.4,0.8-0.5,1.3-0.5H55c0.4,0,0.8,0.1,1.2,0.2c0.4,0.2,0.7,0.4,1,0.6c0.3,0.3,0.5,0.6,0.6,1C58,15.1,58,15.5,58,15.9z"/>
	<path class="st1" d="M76.1,12.9l-5.7,13.8h-4.9l-5.7-13.8h3.9L68,23.1l4.2-10.2H76.1z"/>
	<path class="st1" d="M83,15.5c-0.3,0-0.5,0.1-0.7,0.3C82.1,16,82,16.2,82,16.5v1c0,0.3,0.1,0.5,0.3,0.7c0.2,0.2,0.4,0.3,0.7,0.3
		h5.3c0.6,0,1.1,0.1,1.6,0.3c0.5,0.2,0.9,0.5,1.3,0.9c0.4,0.4,0.7,0.8,0.9,1.3c0.2,0.5,0.3,1,0.3,1.6v0.2c0,0.6-0.1,1.1-0.3,1.6
		c-0.2,0.5-0.5,0.9-0.9,1.3c-0.4,0.4-0.8,0.7-1.3,0.9c-0.5,0.2-1,0.3-1.6,0.3H78v-2.6h9.6c0.3,0,0.5-0.1,0.7-0.3
		c0.2-0.2,0.3-0.4,0.3-0.7V22c0-0.3-0.1-0.5-0.3-0.7c-0.2-0.2-0.4-0.3-0.7-0.3h-5.3c-0.6,0-1.1-0.1-1.6-0.3
		c-0.5-0.2-0.9-0.5-1.3-0.9c-0.4-0.4-0.7-0.8-0.9-1.3c-0.2-0.5-0.3-1-0.3-1.6c0-0.6,0.1-1.1,0.3-1.6c0.2-0.5,0.5-0.9,0.9-1.3
		c0.4-0.4,0.8-0.7,1.3-0.9c0.5-0.2,1-0.3,1.6-0.3h10v2.6H83z"/>
	<path class="st1" d="M104.4,10.4h-2.7c-0.3,0-0.5,0.1-0.7,0.3c-0.2,0.2-0.3,0.4-0.3,0.7V13h4.2v2.6h-4.2v11.1h-3.9V15.6h-2.6V13
		h2.6V12c0-0.6,0.1-1.1,0.3-1.6c0.2-0.5,0.5-0.9,0.9-1.3c0.4-0.4,0.8-0.7,1.3-0.9c0.5-0.2,1.1-0.3,1.6-0.3h3.4V10.4z"/>
	<path class="st1" d="M107.7,7.8h3.9v3.4h-3.9V7.8z M107.7,12.9h3.9v13.9h-3.9V12.9z"/>
</g>
</svg>
